<?xml version="1.0" encoding="UTF-8"?>
<svg xmlns="http://www.w3.org/2000/svg" xmlns:xlink="http://www.w3.org/1999/xlink" width="80px" height="80px" viewBox="0 0 80 80" version="1.1">
<g id="surface1">
<path style=" stroke:none;fill-rule:nonzero;fill:rgb(3.137255%,3.529412%,5.098039%);fill-opacity:1;" d="M 10 63.332031 C 10 59.652344 12.984375 56.667969 16.667969 56.667969 C 20.347656 56.667969 23.332031 59.652344 23.332031 63.332031 C 23.332031 67.015625 20.347656 70 16.667969 70 C 12.984375 70 10 67.015625 10 63.332031 Z M 33.332031 63.332031 C 33.332031 59.652344 36.316406 56.667969 40 56.667969 C 43.683594 56.667969 46.667969 59.652344 46.667969 63.332031 C 46.667969 67.015625 43.683594 70 40 70 C 36.316406 70 33.332031 67.015625 33.332031 63.332031 Z M 56.667969 63.332031 C 56.667969 59.652344 59.652344 56.667969 63.332031 56.667969 C 67.015625 56.667969 70 59.652344 70 63.332031 C 70 67.015625 67.015625 70 63.332031 70 C 59.652344 70 56.667969 67.015625 56.667969 63.332031 Z M 10 40 C 10 36.316406 12.984375 33.332031 16.667969 33.332031 C 20.347656 33.332031 23.332031 36.316406 23.332031 40 C 23.332031 43.683594 20.347656 46.667969 16.667969 46.667969 C 12.984375 46.667969 10 43.683594 10 40 Z M 33.332031 40 C 33.332031 36.316406 36.316406 33.332031 40 33.332031 C 43.683594 33.332031 46.667969 36.316406 46.667969 40 C 46.667969 43.683594 43.683594 46.667969 40 46.667969 C 36.316406 46.667969 33.332031 43.683594 33.332031 40 Z M 56.667969 40 C 56.667969 36.316406 59.652344 33.332031 63.332031 33.332031 C 67.015625 33.332031 70 36.316406 70 40 C 70 43.683594 67.015625 46.667969 63.332031 46.667969 C 59.652344 46.667969 56.667969 43.683594 56.667969 40 Z M 10 16.667969 C 10 12.984375 12.984375 10 16.667969 10 C 20.347656 10 23.332031 12.984375 23.332031 16.667969 C 23.332031 20.347656 20.347656 23.332031 16.667969 23.332031 C 12.984375 23.332031 10 20.347656 10 16.667969 Z M 33.332031 16.667969 C 33.332031 12.984375 36.316406 10 40 10 C 43.683594 10 46.667969 12.984375 46.667969 16.667969 C 46.667969 20.347656 43.683594 23.332031 40 23.332031 C 36.316406 23.332031 33.332031 20.347656 33.332031 16.667969 Z M 56.667969 16.667969 C 56.667969 12.984375 59.652344 10 63.332031 10 C 67.015625 10 70 12.984375 70 16.667969 C 70 20.347656 67.015625 23.332031 63.332031 23.332031 C 59.652344 23.332031 56.667969 20.347656 56.667969 16.667969 Z M 56.667969 16.667969 "/>
</g>
</svg>
