<svg width="26" height="26" viewBox="0 0 26 26" fill="none" xmlns="http://www.w3.org/2000/svg">
<g clip-path="url(#clip0_6423_3309)">
<path d="M4.63304 5.09987C7.27986 2.8424 10.6873 3.25521 12.9918 5.26596C15.2937 3.25397 18.6654 2.87061 21.342 5.09123C24.2705 7.52093 24.6222 11.6646 22.3672 14.5613C21.5079 15.665 19.8309 17.3236 18.2191 18.8422C16.5884 20.3786 14.9608 21.8301 14.1585 22.5394C14.0807 22.6081 13.9805 22.6985 13.8844 22.7708C13.7766 22.8518 13.6216 22.9521 13.415 23.0137C13.1403 23.0955 12.8453 23.0955 12.5706 23.0137C12.3639 22.9521 12.209 22.8518 12.1012 22.7708C12.0051 22.6985 11.9049 22.6081 11.8271 22.5394C11.0248 21.8301 9.3972 20.3786 7.7665 18.8422C6.15471 17.3236 4.47766 15.665 3.61837 14.5613C1.3547 11.6535 1.77045 7.54151 4.63304 5.09987ZM12.2445 7.29841C10.5653 5.33879 7.89624 4.90351 5.91316 6.59468C3.8417 8.36143 3.56249 11.286 5.17356 13.3554C5.92518 14.3208 7.49108 15.8791 9.11876 17.4127C10.638 18.8441 12.1584 20.2036 12.9928 20.9428C13.8271 20.2036 15.3476 18.8441 16.8668 17.4127C18.4945 15.8791 20.0604 14.3208 20.812 13.3554C22.4318 11.2748 22.1735 8.33773 20.083 6.60332C18.0473 4.91442 15.4129 5.34738 13.741 7.29841C13.5539 7.51662 13.2805 7.64211 12.9928 7.64211C12.705 7.64211 12.4316 7.51661 12.2445 7.29841Z" fill="black"/>
</g>
<defs>
<clipPath id="clip0_6423_3309">
<rect width="26" height="26" fill="white"/>
</clipPath>
</defs>
</svg>
