<svg xmlns="http://www.w3.org/2000/svg" width="24" height="24" fill="currentColor" viewBox="0 0 24 24">
  <path fill="#08090D" d="M3.505 3.55c2.687-2.296 6.147-1.877 8.487.169 2.337-2.047 5.761-2.437 8.479-.178 2.973 2.471 3.33 6.686 1.04 9.633-.872 1.123-2.575 2.81-4.211 4.354a184.47 184.47 0 0 1-4.123 3.761c-.08.07-.181.162-.279.235a1.5 1.5 0 0 1-.476.247 1.504 1.504 0 0 1-.858 0 1.5 1.5 0 0 1-.476-.247c-.098-.073-.2-.165-.278-.235a184.572 184.572 0 0 1-4.124-3.76c-1.636-1.545-3.339-3.232-4.211-4.355C.176 10.216.598 6.034 3.505 3.55Zm7.728 2.236C9.528 3.793 6.818 3.35 4.805 5.07 2.7 6.867 2.418 9.842 4.054 11.947c.763.982 2.353 2.567 4.006 4.127a181.162 181.162 0 0 0 3.933 3.591 184.98 184.98 0 0 0 3.934-3.59c1.652-1.56 3.242-3.146 4.006-4.128 1.644-2.116 1.382-5.104-.74-6.868-2.068-1.718-4.743-1.277-6.44.707a1 1 0 0 1-1.52 0Z"/>
</svg>
