<?xml version="1.0" encoding="UTF-8"?>
<svg xmlns="http://www.w3.org/2000/svg" xmlns:xlink="http://www.w3.org/1999/xlink" width="80px" height="80px" viewBox="0 0 80 80" version="1.1">
<g id="surface1">
<path style=" stroke:none;fill-rule:nonzero;fill:rgb(0%,0%,0%);fill-opacity:1;" d="M 18.75 57.5 C 20.820312 57.5 22.5 59.179688 22.5 61.25 L 22.5 68.75 C 22.5 70.820312 20.820312 72.5 18.75 72.5 L 11.25 72.5 C 9.179688 72.5 7.5 70.820312 7.5 68.75 L 7.5 61.25 C 7.5 59.179688 9.179688 57.5 11.25 57.5 Z M 43.75 57.5 C 45.820312 57.5 47.5 59.179688 47.5 61.25 L 47.5 68.75 C 47.5 70.820312 45.820312 72.5 43.75 72.5 L 36.25 72.5 C 34.179688 72.5 32.5 70.820312 32.5 68.75 L 32.5 61.25 C 32.5 59.179688 34.179688 57.5 36.25 57.5 Z M 68.75 57.5 C 70.820312 57.5 72.5 59.179688 72.5 61.25 L 72.5 68.75 C 72.5 70.820312 70.820312 72.5 68.75 72.5 L 61.25 72.5 C 59.179688 72.5 57.5 70.820312 57.5 68.75 L 57.5 61.25 C 57.5 59.179688 59.179688 57.5 61.25 57.5 Z M 18.75 32.5 C 20.820312 32.5 22.5 34.179688 22.5 36.25 L 22.5 43.75 C 22.5 45.820312 20.820312 47.5 18.75 47.5 L 11.25 47.5 C 9.179688 47.5 7.5 45.820312 7.5 43.75 L 7.5 36.25 C 7.5 34.179688 9.179688 32.5 11.25 32.5 Z M 43.75 32.5 C 45.820312 32.5 47.5 34.179688 47.5 36.25 L 47.5 43.75 C 47.5 45.820312 45.820312 47.5 43.75 47.5 L 36.25 47.5 C 34.179688 47.5 32.5 45.820312 32.5 43.75 L 32.5 36.25 C 32.5 34.179688 34.179688 32.5 36.25 32.5 Z M 68.75 32.5 C 70.820312 32.5 72.5 34.179688 72.5 36.25 L 72.5 43.75 C 72.5 45.820312 70.820312 47.5 68.75 47.5 L 61.25 47.5 C 59.179688 47.5 57.5 45.820312 57.5 43.75 L 57.5 36.25 C 57.5 34.179688 59.179688 32.5 61.25 32.5 Z M 18.75 7.5 C 20.820312 7.5 22.5 9.179688 22.5 11.25 L 22.5 18.75 C 22.5 20.820312 20.820312 22.5 18.75 22.5 L 11.25 22.5 C 9.179688 22.5 7.5 20.820312 7.5 18.75 L 7.5 11.25 C 7.5 9.179688 9.179688 7.5 11.25 7.5 Z M 43.75 7.5 C 45.820312 7.5 47.5 9.179688 47.5 11.25 L 47.5 18.75 C 47.5 20.820312 45.820312 22.5 43.75 22.5 L 36.25 22.5 C 34.179688 22.5 32.5 20.820312 32.5 18.75 L 32.5 11.25 C 32.5 9.179688 34.179688 7.5 36.25 7.5 Z M 68.75 7.5 C 70.820312 7.5 72.5 9.179688 72.5 11.25 L 72.5 18.75 C 72.5 20.820312 70.820312 22.5 68.75 22.5 L 61.25 22.5 C 59.179688 22.5 57.5 20.820312 57.5 18.75 L 57.5 11.25 C 57.5 9.179688 59.179688 7.5 61.25 7.5 Z M 68.75 7.5 "/>
</g>
</svg>
