<?xml version="1.0" encoding="UTF-8"?>
<svg xmlns="http://www.w3.org/2000/svg" xmlns:xlink="http://www.w3.org/1999/xlink" width="80px" height="80px" viewBox="0 0 80 80" version="1.1">
<g id="surface1">
<path style=" stroke:none;fill-rule:nonzero;fill:rgb(3.137255%,3.529412%,5.098039%);fill-opacity:1;" d="M 70 40 C 70 23.429688 56.570312 10 40 10 C 23.429688 10 10 23.429688 10 40 C 10 56.570312 23.429688 70 40 70 C 43.683594 70 46.667969 67.015625 46.667969 63.332031 L 46.667969 61.667969 C 46.667969 60.222656 46.660156 59.179688 46.78125 58.257812 L 46.972656 57.15625 C 48.171875 51.664062 52.683594 47.515625 58.257812 46.78125 L 58.976562 46.714844 C 59.726562 46.664062 60.582031 46.667969 61.667969 46.667969 L 63.332031 46.667969 C 67.015625 46.667969 70 43.683594 70 40 Z M 16.667969 40 C 16.667969 36.316406 19.652344 33.332031 23.332031 33.332031 C 27.015625 33.332031 30 36.316406 30 40 C 30 43.683594 27.015625 46.667969 23.332031 46.667969 C 19.652344 46.667969 16.667969 43.683594 16.667969 40 Z M 46.667969 26.667969 C 46.667969 22.984375 49.652344 20 53.332031 20 C 57.015625 20 60 22.984375 60 26.667969 C 60 30.347656 57.015625 33.332031 53.332031 33.332031 C 49.652344 33.332031 46.667969 30.347656 46.667969 26.667969 Z M 26.667969 23.332031 C 26.667969 19.652344 29.652344 16.667969 33.332031 16.667969 C 37.015625 16.667969 40 19.652344 40 23.332031 C 40 27.015625 37.015625 30 33.332031 30 C 29.652344 30 26.667969 27.015625 26.667969 23.332031 Z M 76.667969 40 C 76.667969 47.363281 70.695312 53.332031 63.332031 53.332031 L 61.667969 53.332031 C 60.839844 53.332031 60.300781 53.332031 59.921875 53.34375 L 59.128906 53.394531 C 56.34375 53.757812 54.085938 55.832031 53.488281 58.578125 L 53.394531 59.128906 C 53.34375 59.511719 53.332031 60.011719 53.332031 61.667969 L 53.332031 63.332031 C 53.332031 70.695312 47.363281 76.667969 40 76.667969 C 19.75 76.667969 3.332031 60.25 3.332031 40 C 3.332031 19.75 19.75 3.332031 40 3.332031 C 60.25 3.332031 76.667969 19.75 76.667969 40 Z M 76.667969 40 "/>
</g>
</svg>
