<?xml version="1.0" encoding="UTF-8"?>
<svg xmlns="http://www.w3.org/2000/svg" xmlns:xlink="http://www.w3.org/1999/xlink" width="80px" height="80px" viewBox="0 0 80 80" version="1.1">
<g id="surface1">
<path style=" stroke:none;fill-rule:evenodd;fill:rgb(0%,0%,0%);fill-opacity:1;" d="M 24 26 L 12 26 C 10.894531 26 10 25.105469 10 24 L 10 12 C 10 10.894531 10.894531 10 12 10 L 24 10 C 25.105469 10 26 10.894531 26 12 L 26 24 C 26 25.105469 25.105469 26 24 26 Z M 46 26 L 34 26 C 32.894531 26 32 25.105469 32 24 L 32 12 C 32 10.894531 32.894531 10 34 10 L 46 10 C 47.105469 10 48 10.894531 48 12 L 48 24 C 48 25.105469 47.105469 26 46 26 Z M 68 26 L 56 26 C 54.894531 26 54 25.105469 54 24 L 54 12 C 54 10.894531 54.894531 10 56 10 L 68 10 C 69.105469 10 70 10.894531 70 12 L 70 24 C 70 25.105469 69.105469 26 68 26 Z M 24 48 L 12 48 C 10.894531 48 10 47.105469 10 46 L 10 34 C 10 32.894531 10.894531 32 12 32 L 24 32 C 25.105469 32 26 32.894531 26 34 L 26 46 C 26 47.105469 25.105469 48 24 48 Z M 46 48 L 34 48 C 32.894531 48 32 47.105469 32 46 L 32 34 C 32 32.894531 32.894531 32 34 32 L 46 32 C 47.105469 32 48 32.894531 48 34 L 48 46 C 48 47.105469 47.105469 48 46 48 Z M 68 48 L 56 48 C 54.894531 48 54 47.105469 54 46 L 54 34 C 54 32.894531 54.894531 32 56 32 L 68 32 C 69.105469 32 70 32.894531 70 34 L 70 46 C 70 47.105469 69.105469 48 68 48 Z M 24 70 L 12 70 C 10.894531 70 10 69.105469 10 68 L 10 56 C 10 54.894531 10.894531 54 12 54 L 24 54 C 25.105469 54 26 54.894531 26 56 L 26 68 C 26 69.105469 25.105469 70 24 70 Z M 46 70 L 34 70 C 32.894531 70 32 69.105469 32 68 L 32 56 C 32 54.894531 32.894531 54 34 54 L 46 54 C 47.105469 54 48 54.894531 48 56 L 48 68 C 48 69.105469 47.105469 70 46 70 Z M 68 70 L 56 70 C 54.894531 70 54 69.105469 54 68 L 54 56 C 54 54.894531 54.894531 54 56 54 L 68 54 C 69.105469 54 70 54.894531 70 56 L 70 68 C 70 69.105469 69.105469 70 68 70 Z M 68 70 "/>
</g>
</svg>
