<?xml version="1.0" encoding="UTF-8"?>
<svg xmlns="http://www.w3.org/2000/svg" xmlns:xlink="http://www.w3.org/1999/xlink" width="80px" height="80px" viewBox="0 0 80 80" version="1.1">
<g id="surface1">
<path style=" stroke:none;fill-rule:evenodd;fill:rgb(0%,0%,0%);fill-opacity:1;" d="M 40.398438 55.976562 C 40.421875 50.449219 44.984375 46.011719 50.507812 46.011719 L 61.566406 46.011719 C 69.464844 46.011719 75.261719 38.484375 73.144531 30.863281 C 71.574219 25.222656 68.570312 20.085938 64.425781 15.953125 C 58.058594 9.570312 49.414062 5.980469 40.398438 5.984375 C 31.382812 5.984375 22.738281 9.574219 16.375 15.960938 C 3.101562 29.242188 3.101562 50.777344 16.375 64.058594 C 25.546875 73.246094 39.152344 76.398438 51.429688 72.1875 C 54.8125 71.027344 53.976562 66.015625 50.398438 66.015625 C 47.738281 66.015625 45.191406 64.953125 43.316406 63.070312 C 41.441406 61.1875 40.394531 58.632812 40.402344 55.976562 Z M 53.234375 18.003906 C 55.996094 17.910156 58.308594 20.074219 58.398438 22.835938 C 58.492188 25.597656 56.328125 27.910156 53.566406 28.003906 C 50.804688 28.09375 48.492188 25.929688 48.398438 23.171875 C 48.308594 20.410156 50.472656 18.09375 53.234375 18.003906 Z M 14.417969 37.171875 C 14.300781 35.351562 15.1875 33.613281 16.726562 32.632812 C 18.265625 31.65625 20.214844 31.59375 21.8125 32.472656 C 23.410156 33.347656 24.40625 35.027344 24.40625 36.851562 C 24.410156 39.550781 22.269531 41.765625 19.570312 41.855469 C 16.867188 41.941406 14.585938 39.871094 14.417969 37.171875 Z M 21.574219 56.011719 C 18.8125 56.101562 16.5 53.9375 16.40625 51.175781 C 16.316406 48.414062 18.480469 46.101562 21.238281 46.011719 C 24 45.917969 26.316406 48.082031 26.40625 50.84375 C 26.5 53.605469 24.335938 55.917969 21.574219 56.011719 Z M 25.574219 28.003906 C 22.8125 28.09375 20.5 25.929688 20.40625 23.171875 C 20.316406 20.410156 22.480469 18.09375 25.238281 18.003906 C 28 17.910156 30.316406 20.074219 30.40625 22.835938 C 30.5 25.597656 28.335938 27.910156 25.574219 28.003906 Z M 39.566406 22.003906 C 36.804688 22.09375 34.492188 19.929688 34.398438 17.171875 C 34.308594 14.410156 36.472656 12.09375 39.234375 12.003906 C 41.996094 11.910156 44.308594 14.074219 44.398438 16.835938 C 44.492188 19.597656 42.328125 21.910156 39.566406 22.003906 Z M 39.566406 22.003906 "/>
</g>
</svg>
