<svg width="170" height="33" viewBox="0 0 170 33" fill="none" xmlns="http://www.w3.org/2000/svg">
<mask id="path-1-inside-1_3415_7379" fill="white">
<path d="M0 16.5713C0 7.73473 7.16344 0.571289 16 0.571289H72C80.8366 0.571289 88 7.73473 88 16.5713C88 25.4078 80.8366 32.5713 72 32.5713H16C7.16344 32.5713 0 25.4078 0 16.5713Z"/>
</mask>
<path d="M16 2.57129H72V-1.42871H16V2.57129ZM72 30.5713H16V34.5713H72V30.5713ZM16 30.5713C8.26801 30.5713 2 24.3033 2 16.5713H-2C-2 26.5124 6.05888 34.5713 16 34.5713V30.5713ZM86 16.5713C86 24.3033 79.732 30.5713 72 30.5713V34.5713C81.9411 34.5713 90 26.5124 90 16.5713H86ZM72 2.57129C79.732 2.57129 86 8.8393 86 16.5713H90C90 6.63016 81.9411 -1.42871 72 -1.42871V2.57129ZM16 -1.42871C6.05888 -1.42871 -2 6.63016 -2 16.5713H2C2 8.8393 8.26801 2.57129 16 2.57129V-1.42871Z" fill="#FF7900" mask="url(#path-1-inside-1_3415_7379)"/>
<path fill-rule="evenodd" clip-rule="evenodd" d="M25.2917 13.6179L19.2227 20.6179C19.049 20.8181 18.7818 20.9463 18.4823 20.9463C18.1827 20.9463 17.9157 20.818 17.7419 20.6178L14.7073 17.1179C14.5773 16.9681 14.4995 16.7781 14.4995 16.5713C14.4995 16.3297 14.6056 16.1109 14.7772 15.9526L15.1566 15.6026C15.3282 15.4442 15.5652 15.3463 15.8271 15.3463C16.0628 15.3463 16.2782 15.4258 16.4441 15.5571L18.2926 17.4463L23.9027 12.433C24.0723 12.2862 24.3004 12.1963 24.5512 12.1963C25.0749 12.1963 25.4995 12.588 25.4995 13.0713C25.4995 13.2781 25.4217 13.4681 25.2917 13.6179Z" fill="#FF7900"/>
<path d="M34.966 11.5753H37.164V19.7233H42.036V21.5713H34.966V11.5753ZM43.1458 16.5593C43.1738 16.0926 43.2905 15.7053 43.4958 15.3973C43.7012 15.0893 43.9625 14.842 44.2798 14.6553C44.5972 14.4686 44.9518 14.338 45.3438 14.2633C45.7452 14.1793 46.1465 14.1373 46.5478 14.1373C46.9118 14.1373 47.2805 14.1653 47.6538 14.2213C48.0272 14.268 48.3678 14.366 48.6758 14.5153C48.9838 14.6646 49.2358 14.8746 49.4318 15.1453C49.6278 15.4066 49.7258 15.7566 49.7258 16.1953V19.9613C49.7258 20.288 49.7445 20.6006 49.7818 20.8993C49.8192 21.198 49.8845 21.422 49.9778 21.5713H47.9618C47.9245 21.4593 47.8918 21.3473 47.8638 21.2353C47.8452 21.114 47.8312 20.9926 47.8218 20.8713C47.5045 21.198 47.1312 21.4266 46.7018 21.5573C46.2725 21.688 45.8338 21.7533 45.3858 21.7533C45.0405 21.7533 44.7185 21.7113 44.4198 21.6273C44.1212 21.5433 43.8598 21.4126 43.6358 21.2353C43.4118 21.058 43.2345 20.834 43.1038 20.5633C42.9825 20.2926 42.9218 19.9706 42.9218 19.5973C42.9218 19.1866 42.9918 18.8506 43.1318 18.5893C43.2812 18.3186 43.4678 18.104 43.6918 17.9453C43.9252 17.7866 44.1865 17.67 44.4758 17.5953C44.7745 17.5113 45.0732 17.446 45.3718 17.3993C45.6705 17.3526 45.9645 17.3153 46.2538 17.2873C46.5432 17.2593 46.7998 17.2173 47.0238 17.1613C47.2478 17.1053 47.4252 17.026 47.5558 16.9233C47.6865 16.8113 47.7472 16.6526 47.7378 16.4473C47.7378 16.2326 47.7005 16.0646 47.6258 15.9433C47.5605 15.8126 47.4672 15.7146 47.3458 15.6493C47.2338 15.5746 47.0985 15.528 46.9398 15.5093C46.7905 15.4813 46.6272 15.4673 46.4498 15.4673C46.0578 15.4673 45.7498 15.5513 45.5258 15.7193C45.3018 15.8873 45.1712 16.1673 45.1338 16.5593H43.1458ZM47.7378 18.0293C47.6538 18.104 47.5465 18.1646 47.4158 18.2113C47.2945 18.2486 47.1592 18.2813 47.0098 18.3093C46.8698 18.3373 46.7205 18.3606 46.5618 18.3793C46.4032 18.398 46.2445 18.4213 46.0858 18.4493C45.9365 18.4773 45.7872 18.5146 45.6378 18.5613C45.4978 18.608 45.3718 18.6733 45.2598 18.7573C45.1572 18.832 45.0732 18.93 45.0078 19.0513C44.9425 19.1726 44.9098 19.3266 44.9098 19.5133C44.9098 19.6906 44.9425 19.84 45.0078 19.9613C45.0732 20.0826 45.1618 20.1806 45.2738 20.2553C45.3858 20.3206 45.5165 20.3673 45.6658 20.3953C45.8152 20.4233 45.9692 20.4373 46.1278 20.4373C46.5198 20.4373 46.8232 20.372 47.0378 20.2413C47.2525 20.1106 47.4112 19.9566 47.5138 19.7793C47.6165 19.5926 47.6772 19.406 47.6958 19.2193C47.7238 19.0326 47.7378 18.8833 47.7378 18.7713V18.0293ZM56.7499 17.9593C56.7499 17.6513 56.7172 17.3573 56.6519 17.0773C56.5866 16.7973 56.4839 16.55 56.3439 16.3353C56.2039 16.1206 56.0266 15.9526 55.8119 15.8313C55.6066 15.7006 55.3546 15.6353 55.0559 15.6353C54.7666 15.6353 54.5146 15.7006 54.2999 15.8313C54.0852 15.9526 53.9079 16.1206 53.7679 16.3353C53.6279 16.55 53.5252 16.7973 53.4599 17.0773C53.3946 17.3573 53.3619 17.6513 53.3619 17.9593C53.3619 18.258 53.3946 18.5473 53.4599 18.8273C53.5252 19.1073 53.6279 19.3546 53.7679 19.5693C53.9079 19.784 54.0852 19.9566 54.2999 20.0873C54.5146 20.2086 54.7666 20.2693 55.0559 20.2693C55.3546 20.2693 55.6066 20.2086 55.8119 20.0873C56.0266 19.9566 56.2039 19.784 56.3439 19.5693C56.4839 19.3546 56.5866 19.1073 56.6519 18.8273C56.7172 18.5473 56.7499 18.258 56.7499 17.9593ZM51.4439 11.5753H53.4319V15.2153H53.4599C53.7026 14.842 54.0292 14.5713 54.4399 14.4033C54.8599 14.226 55.2939 14.1373 55.7419 14.1373C56.1059 14.1373 56.4652 14.212 56.8199 14.3613C57.1746 14.5106 57.4919 14.7393 57.7719 15.0473C58.0612 15.3553 58.2946 15.752 58.4719 16.2373C58.6492 16.7133 58.7379 17.2826 58.7379 17.9453C58.7379 18.608 58.6492 19.182 58.4719 19.6673C58.2946 20.1433 58.0612 20.5353 57.7719 20.8433C57.4919 21.1513 57.1746 21.38 56.8199 21.5293C56.4652 21.6786 56.1059 21.7533 55.7419 21.7533C55.2099 21.7533 54.7339 21.6693 54.3139 21.5013C53.8939 21.3333 53.5766 21.0486 53.3619 20.6473H53.3339V21.5713H51.4439V11.5753ZM65.0495 17.1753C64.9562 16.6713 64.7882 16.2886 64.5455 16.0273C64.3122 15.766 63.9528 15.6353 63.4675 15.6353C63.1502 15.6353 62.8842 15.6913 62.6695 15.8033C62.4642 15.906 62.2962 16.0366 62.1655 16.1953C62.0442 16.354 61.9555 16.522 61.8995 16.6993C61.8528 16.8766 61.8248 17.0353 61.8155 17.1753H65.0495ZM61.8155 18.4353C61.8435 19.0793 62.0068 19.546 62.3055 19.8353C62.6042 20.1246 63.0335 20.2693 63.5935 20.2693C63.9948 20.2693 64.3402 20.1713 64.6295 19.9753C64.9188 19.77 65.0962 19.5553 65.1615 19.3313H66.9115C66.6315 20.1993 66.2022 20.82 65.6235 21.1933C65.0448 21.5666 64.3448 21.7533 63.5235 21.7533C62.9542 21.7533 62.4408 21.6646 61.9835 21.4873C61.5262 21.3006 61.1388 21.0393 60.8215 20.7033C60.5042 20.3673 60.2568 19.966 60.0795 19.4993C59.9115 19.0326 59.8275 18.5193 59.8275 17.9593C59.8275 17.418 59.9162 16.914 60.0935 16.4473C60.2708 15.9806 60.5228 15.5793 60.8495 15.2433C61.1762 14.898 61.5635 14.6273 62.0115 14.4313C62.4688 14.2353 62.9728 14.1373 63.5235 14.1373C64.1395 14.1373 64.6762 14.2586 65.1335 14.5013C65.5908 14.7346 65.9642 15.052 66.2535 15.4533C66.5522 15.8546 66.7668 16.312 66.8975 16.8253C67.0282 17.3386 67.0748 17.8753 67.0375 18.4353H61.8155ZM68.4475 11.5753H70.4355V21.5713H68.4475V11.5753Z" fill="#EEEEEE"/>
<mask id="path-6-inside-2_3415_7379" fill="white">
<path d="M100 16.5713C100 7.73473 107.163 0.571289 116 0.571289H154C162.837 0.571289 170 7.73473 170 16.5713C170 25.4078 162.837 32.5713 154 32.5713H116C107.163 32.5713 100 25.4078 100 16.5713Z"/>
</mask>
<path d="M116 1.57129H154V-0.428711H116V1.57129ZM154 31.5713H116V33.5713H154V31.5713ZM116 31.5713C107.716 31.5713 101 24.8556 101 16.5713H99C99 25.9601 106.611 33.5713 116 33.5713V31.5713ZM169 16.5713C169 24.8556 162.284 31.5713 154 31.5713V33.5713C163.389 33.5713 171 25.9601 171 16.5713H169ZM154 1.57129C162.284 1.57129 169 8.28702 169 16.5713H171C171 7.18245 163.389 -0.428711 154 -0.428711V1.57129ZM116 -0.428711C106.611 -0.428711 99 7.18245 99 16.5713H101C101 8.28702 107.716 1.57129 116 1.57129V-0.428711Z" fill="white" fill-opacity="0.2" mask="url(#path-6-inside-2_3415_7379)"/>
<path d="M116.966 11.5753H119.164V19.7233H124.036V21.5713H116.966V11.5753ZM125.146 16.5593C125.174 16.0926 125.29 15.7053 125.496 15.3973C125.701 15.0893 125.962 14.842 126.28 14.6553C126.597 14.4686 126.952 14.338 127.344 14.2633C127.745 14.1793 128.146 14.1373 128.548 14.1373C128.912 14.1373 129.28 14.1653 129.654 14.2213C130.027 14.268 130.368 14.366 130.676 14.5153C130.984 14.6646 131.236 14.8746 131.432 15.1453C131.628 15.4066 131.726 15.7566 131.726 16.1953V19.9613C131.726 20.288 131.744 20.6006 131.782 20.8993C131.819 21.198 131.884 21.422 131.978 21.5713H129.962C129.924 21.4593 129.892 21.3473 129.864 21.2353C129.845 21.114 129.831 20.9926 129.822 20.8713C129.504 21.198 129.131 21.4266 128.702 21.5573C128.272 21.688 127.834 21.7533 127.386 21.7533C127.04 21.7533 126.718 21.7113 126.42 21.6273C126.121 21.5433 125.86 21.4126 125.636 21.2353C125.412 21.058 125.234 20.834 125.104 20.5633C124.982 20.2926 124.922 19.9706 124.922 19.5973C124.922 19.1866 124.992 18.8506 125.132 18.5893C125.281 18.3186 125.468 18.104 125.692 17.9453C125.925 17.7866 126.186 17.67 126.476 17.5953C126.774 17.5113 127.073 17.446 127.372 17.3993C127.67 17.3526 127.964 17.3153 128.254 17.2873C128.543 17.2593 128.8 17.2173 129.024 17.1613C129.248 17.1053 129.425 17.026 129.556 16.9233C129.686 16.8113 129.747 16.6526 129.738 16.4473C129.738 16.2326 129.7 16.0646 129.626 15.9433C129.56 15.8126 129.467 15.7146 129.346 15.6493C129.234 15.5746 129.098 15.528 128.94 15.5093C128.79 15.4813 128.627 15.4673 128.45 15.4673C128.058 15.4673 127.75 15.5513 127.526 15.7193C127.302 15.8873 127.171 16.1673 127.134 16.5593H125.146ZM129.738 18.0293C129.654 18.104 129.546 18.1646 129.416 18.2113C129.294 18.2486 129.159 18.2813 129.01 18.3093C128.87 18.3373 128.72 18.3606 128.562 18.3793C128.403 18.398 128.244 18.4213 128.086 18.4493C127.936 18.4773 127.787 18.5146 127.638 18.5613C127.498 18.608 127.372 18.6733 127.26 18.7573C127.157 18.832 127.073 18.93 127.008 19.0513C126.942 19.1726 126.91 19.3266 126.91 19.5133C126.91 19.6906 126.942 19.84 127.008 19.9613C127.073 20.0826 127.162 20.1806 127.274 20.2553C127.386 20.3206 127.516 20.3673 127.666 20.3953C127.815 20.4233 127.969 20.4373 128.128 20.4373C128.52 20.4373 128.823 20.372 129.038 20.2413C129.252 20.1106 129.411 19.9566 129.514 19.7793C129.616 19.5926 129.677 19.406 129.696 19.2193C129.724 19.0326 129.738 18.8833 129.738 18.7713V18.0293ZM138.75 17.9593C138.75 17.6513 138.717 17.3573 138.652 17.0773C138.587 16.7973 138.484 16.55 138.344 16.3353C138.204 16.1206 138.027 15.9526 137.812 15.8313C137.607 15.7006 137.355 15.6353 137.056 15.6353C136.767 15.6353 136.515 15.7006 136.3 15.8313C136.085 15.9526 135.908 16.1206 135.768 16.3353C135.628 16.55 135.525 16.7973 135.46 17.0773C135.395 17.3573 135.362 17.6513 135.362 17.9593C135.362 18.258 135.395 18.5473 135.46 18.8273C135.525 19.1073 135.628 19.3546 135.768 19.5693C135.908 19.784 136.085 19.9566 136.3 20.0873C136.515 20.2086 136.767 20.2693 137.056 20.2693C137.355 20.2693 137.607 20.2086 137.812 20.0873C138.027 19.9566 138.204 19.784 138.344 19.5693C138.484 19.3546 138.587 19.1073 138.652 18.8273C138.717 18.5473 138.75 18.258 138.75 17.9593ZM133.444 11.5753H135.432V15.2153H135.46C135.703 14.842 136.029 14.5713 136.44 14.4033C136.86 14.226 137.294 14.1373 137.742 14.1373C138.106 14.1373 138.465 14.212 138.82 14.3613C139.175 14.5106 139.492 14.7393 139.772 15.0473C140.061 15.3553 140.295 15.752 140.472 16.2373C140.649 16.7133 140.738 17.2826 140.738 17.9453C140.738 18.608 140.649 19.182 140.472 19.6673C140.295 20.1433 140.061 20.5353 139.772 20.8433C139.492 21.1513 139.175 21.38 138.82 21.5293C138.465 21.6786 138.106 21.7533 137.742 21.7533C137.21 21.7533 136.734 21.6693 136.314 21.5013C135.894 21.3333 135.577 21.0486 135.362 20.6473H135.334V21.5713H133.444V11.5753ZM147.049 17.1753C146.956 16.6713 146.788 16.2886 146.545 16.0273C146.312 15.766 145.953 15.6353 145.467 15.6353C145.15 15.6353 144.884 15.6913 144.669 15.8033C144.464 15.906 144.296 16.0366 144.165 16.1953C144.044 16.354 143.955 16.522 143.899 16.6993C143.853 16.8766 143.825 17.0353 143.815 17.1753H147.049ZM143.815 18.4353C143.843 19.0793 144.007 19.546 144.305 19.8353C144.604 20.1246 145.033 20.2693 145.593 20.2693C145.995 20.2693 146.34 20.1713 146.629 19.9753C146.919 19.77 147.096 19.5553 147.161 19.3313H148.911C148.631 20.1993 148.202 20.82 147.623 21.1933C147.045 21.5666 146.345 21.7533 145.523 21.7533C144.954 21.7533 144.441 21.6646 143.983 21.4873C143.526 21.3006 143.139 21.0393 142.821 20.7033C142.504 20.3673 142.257 19.966 142.079 19.4993C141.911 19.0326 141.827 18.5193 141.827 17.9593C141.827 17.418 141.916 16.914 142.093 16.4473C142.271 15.9806 142.523 15.5793 142.849 15.2433C143.176 14.898 143.563 14.6273 144.011 14.4313C144.469 14.2353 144.973 14.1373 145.523 14.1373C146.139 14.1373 146.676 14.2586 147.133 14.5013C147.591 14.7346 147.964 15.052 148.253 15.4533C148.552 15.8546 148.767 16.312 148.897 16.8253C149.028 17.3386 149.075 17.8753 149.037 18.4353H143.815ZM150.448 11.5753H152.436V21.5713H150.448V11.5753Z" fill="#EEEEEE"/>
</svg>
