<svg width="26" height="26" viewBox="0 0 26 26" fill="none" xmlns="http://www.w3.org/2000/svg">
<g clip-path="url(#clip0_6423_3308)">
<path fill-rule="evenodd" clip-rule="evenodd" d="M12.9993 23.2917C12.8093 23.2917 12.6285 23.2132 12.4992 23.0742L3.65836 13.5913C2.69212 12.5024 2.16602 11.1179 2.16602 9.68046C2.16602 6.43351 4.81908 3.79166 8.08013 3.79166C10.0808 3.79166 11.9195 4.80783 12.9993 6.42162C14.0792 4.80783 15.9179 3.79166 17.9186 3.79166C18.2952 3.79166 18.6009 4.09573 18.6009 4.47115C18.6009 4.84622 18.2952 5.15064 17.9186 5.15064C16.0076 5.15064 14.2887 6.35639 13.6418 8.1516C13.5442 8.42136 13.2873 8.60177 12.9993 8.60177C12.7114 8.60177 12.4545 8.42136 12.3569 8.1516C11.71 6.35639 9.99111 5.15064 8.08013 5.15064C5.57139 5.15064 3.53076 7.18265 3.53076 9.68046C3.53076 10.7863 3.93541 11.8511 4.66998 12.6794L12.9993 21.6137L21.34 12.6672C22.0633 11.8511 22.4679 10.7863 22.4679 9.68046C22.4679 8.6157 22.0896 7.58117 21.4024 6.76714C21.1602 6.48006 21.197 6.0513 21.4857 5.80974C21.7746 5.56886 22.2049 5.60555 22.4471 5.89264C23.3407 6.95094 23.8327 8.29633 23.8327 9.68046C23.8327 11.1179 23.3066 12.5024 22.3516 13.579L13.4995 23.0742C13.3702 23.2132 13.1894 23.2917 12.9993 23.2917Z" fill="black"/>
<path fill-rule="evenodd" clip-rule="evenodd" d="M5.71315 10.8462C5.46716 10.8462 5.25051 10.6692 5.20888 10.4198C5.1792 10.2394 5.16385 10.0559 5.16385 9.87452C5.16385 8.04193 6.66097 6.55079 8.50133 6.55079C8.58116 6.55079 8.65964 6.55793 8.73743 6.56574L8.79577 6.57152C9.07725 6.59632 9.28571 6.84365 9.26046 7.12394C9.23556 7.40457 8.98103 7.6108 8.7057 7.58668L8.63473 7.57988C8.59037 7.57546 8.54636 7.57003 8.50133 7.57003C7.22563 7.57003 6.1874 8.60387 6.1874 9.87452C6.1874 10.0006 6.19798 10.128 6.21845 10.2533C6.26485 10.5309 6.07618 10.7935 5.79743 10.8391C5.76911 10.8438 5.74079 10.8462 5.71315 10.8462Z" fill="black"/>
</g>
<defs>
<clipPath id="clip0_6423_3308">
<rect width="26" height="26" fill="white"/>
</clipPath>
</defs>
</svg>
