<?xml version="1.0" encoding="UTF-8"?>
<svg xmlns="http://www.w3.org/2000/svg" xmlns:xlink="http://www.w3.org/1999/xlink" width="80px" height="80px" viewBox="0 0 80 80" version="1.1">
<g id="surface1">
<path style=" stroke:none;fill-rule:nonzero;fill:rgb(0%,0%,0%);fill-opacity:1;" d="M 17.125 17.03125 C 27.894531 6.386719 44.203125 4.660156 56.769531 11.84375 C 58.035156 12.566406 58.226562 14.25 57.285156 15.292969 C 56.53125 16.113281 55.304688 16.300781 54.339844 15.742188 C 43.554688 9.648438 29.605469 11.160156 20.390625 20.273438 C 15.101562 25.476562 12.121094 32.585938 12.121094 40.007812 C 12.121094 47.425781 15.101562 54.535156 20.390625 59.738281 C 28.265625 67.527344 39.644531 69.757812 49.523438 66.414062 C 50.058594 66.238281 49.980469 65.445312 49.414062 65.398438 L 49.3125 65.390625 C 46.328125 65.382812 43.46875 64.203125 41.347656 62.105469 C 39.230469 60.011719 38.042969 57.15625 38.050781 54.175781 L 38.050781 54.164062 L 38.066406 53.621094 L 38.066406 53.601562 C 38.398438 47.671875 43.433594 43.046875 49.441406 43.046875 L 59.382812 43.046875 C 64.988281 43.046875 69.050781 37.78125 67.566406 32.5 C 66.503906 28.734375 64.65625 25.238281 62.144531 22.238281 C 61.34375 21.304688 61.304688 19.9375 62.046875 18.953125 L 62.078125 18.914062 C 62.449219 18.421875 63.023438 18.125 63.636719 18.101562 C 64.253906 18.078125 64.847656 18.332031 65.253906 18.792969 C 68.40625 22.398438 70.71875 26.660156 72.019531 31.269531 C 74.339844 39.523438 67.988281 47.625 59.382812 47.625 L 49.441406 47.625 C 45.710938 47.625 42.6875 50.585938 42.671875 54.191406 C 42.667969 55.941406 43.363281 57.625 44.613281 58.871094 C 45.875 60.117188 47.574219 60.8125 49.347656 60.8125 C 55.140625 60.8125 56.5625 68.875 51.019531 70.746094 C 39.535156 74.632812 26.296875 72.050781 17.125 62.984375 C 10.96875 56.925781 7.5 48.644531 7.5 40.007812 C 7.5 31.367188 10.96875 23.089844 17.125 17.03125 Z M 17.125 17.03125 "/>
<path style=" stroke:none;fill-rule:nonzero;fill:rgb(0%,0%,0%);fill-opacity:1;" d="M 25.285156 46.125 C 27.996094 46.125 30.191406 48.324219 30.191406 51.035156 C 30.191406 53.742188 27.996094 55.941406 25.285156 55.941406 C 22.578125 55.941406 20.378906 53.742188 20.378906 51.035156 C 20.378906 48.324219 22.578125 46.125 25.285156 46.125 Z M 21.609375 32.644531 C 24.320312 32.644531 26.515625 34.839844 26.515625 37.546875 C 26.515625 40.257812 24.320312 42.453125 21.609375 42.453125 C 18.902344 42.453125 16.703125 40.257812 16.703125 37.546875 C 16.703125 34.839844 18.902344 32.644531 21.609375 32.644531 Z M 27.738281 19.15625 C 30.449219 19.15625 32.644531 21.351562 32.644531 24.0625 C 32.644531 26.769531 30.449219 28.964844 27.738281 28.964844 C 25.03125 28.964844 22.835938 26.769531 22.835938 24.0625 C 22.835938 21.351562 25.03125 19.15625 27.738281 19.15625 Z M 54.710938 19.15625 C 57.417969 19.15625 59.613281 21.351562 59.613281 24.058594 C 59.613281 26.769531 57.417969 28.964844 54.710938 28.964844 C 52.003906 28.964844 49.808594 26.769531 49.808594 24.058594 C 49.808594 21.351562 52.003906 19.15625 54.710938 19.15625 Z M 41.226562 14.253906 C 43.933594 14.253906 46.128906 16.449219 46.128906 19.15625 C 46.128906 21.863281 43.933594 24.058594 41.226562 24.058594 C 38.519531 24.058594 36.324219 21.863281 36.324219 19.15625 C 36.324219 16.449219 38.519531 14.253906 41.226562 14.253906 Z M 41.226562 14.253906 "/>
</g>
</svg>
