<svg width="32" height="32" viewBox="0 0 32 32" xmlns="http://www.w3.org/2000/svg"><g transform="scale(.0288)"><path id="Light_mode" fill="#000000" fill-rule="evenodd" d="M287.868,712.132a25.073,25.073,0,0,0-35.355,0L199.48,765.165a25,25,0,0,0,35.355,35.355l53.033-53.033a25.073,25.073,0,0,0,0-35.355h0ZM712.132,287.868a25.073,25.073,0,0,0,35.355,0l53.033-53.033a25,25,0,0,0-35.355-35.355l-53.033,53.033a25.073,25.073,0,0,0,0,35.355h0Zm35.355,424.264a25.073,25.073,0,0,0-35.355,0h0a25.073,25.073,0,0,0,0,35.355l53.033,53.033a25,25,0,0,0,35.355-35.355ZM252.513,287.868a25.073,25.073,0,0,0,35.355,0h0a25.073,25.073,0,0,0,0-35.355L234.835,199.48a25,25,0,0,0-35.355,35.355ZM200,500a25.073,25.073,0,0,0-25-25H100a25,25,0,0,0,0,50h75A25.073,25.073,0,0,0,200,500Zm700-25H825a25,25,0,0,0,0,50h75A25,25,0,0,0,900,475ZM500,800a25.073,25.073,0,0,0-25,25v75a25,25,0,0,0,50,0V825A25.073,25.073,0,0,0,500,800Zm0-600a25.073,25.073,0,0,0,25-25V100a25,25,0,0,0-50,0v75A25.073,25.073,0,0,0,500,200Zm0,50c-138.071,0-250,111.929-250,250S361.929,750,500,750,750,638.071,750,500,638.071,250,500,250Z"/></g></svg>