<svg width="26" height="26" viewBox="0 0 26 26" fill="none" xmlns="http://www.w3.org/2000/svg">
<g clip-path="url(#clip0_6423_3307)">
<path fill-rule="evenodd" clip-rule="evenodd" d="M19.9339 12.1789L13.0005 19.767L6.06746 12.1789L6.06392 12.1751C4.72118 10.7024 4.84115 8.43312 6.33151 7.10635C7.76751 5.82853 9.96478 5.88478 11.3313 7.23506C11.3349 7.23887 11.3384 7.24237 11.3419 7.24586L12.4023 8.24181L13.0005 8.81065L13.5987 8.24213L14.6594 7.24586C14.6626 7.24237 14.6665 7.23887 14.67 7.23506C15.3499 6.55976 16.2745 6.18159 17.2384 6.18413C19.2443 6.18413 20.8707 7.79055 20.871 9.77292C20.871 10.6602 20.5385 11.516 19.9374 12.1751L19.9339 12.1789ZM21.5195 5.5435C19.1691 3.22142 15.3683 3.20808 13.0006 5.50187C10.6331 3.20808 6.83231 3.22142 4.48195 5.5435C2.15668 7.84143 2.11841 11.5437 4.36842 13.8874L13.0006 23.2917L21.633 13.8874C23.8827 11.5437 23.8447 7.84143 21.5195 5.5435Z" fill="black"/>
</g>
<defs>
<clipPath id="clip0_6423_3307">
<rect width="26" height="26" fill="white"/>
</clipPath>
</defs>
</svg>
